<svg width="12" height="4" viewBox="0 0 12 4" fill="none" xmlns="http://www.w3.org/2000/svg">
<path d="M3.31996 1.69238C3.31996 2.09017 3.17397 2.43083 2.88197 2.71436C2.59844 2.99788 2.25144 3.13965 1.84096 3.13965C1.43471 3.13965 1.08135 2.99577 0.780899 2.70801C0.488907 2.41602 0.342911 2.06266 0.342911 1.64795C0.342911 1.2417 0.486791 0.894694 0.774551 0.606934C1.06231 0.319173 1.40932 0.175293 1.81557 0.175293C2.23451 0.175293 2.58998 0.323405 2.88197 0.619629C3.17397 0.911621 3.31996 1.26921 3.31996 1.69238ZM7.36012 1.69238C7.36012 2.09017 7.21412 2.43083 6.92213 2.71436C6.6386 2.99788 6.29159 3.13965 5.88111 3.13965C5.47486 3.13965 5.12151 2.99577 4.82105 2.70801C4.52906 2.41602 4.38306 2.06266 4.38306 1.64795C4.38306 1.2417 4.52694 0.894694 4.8147 0.606934C5.10247 0.319173 5.44947 0.175293 5.85572 0.175293C6.27467 0.175293 6.63013 0.323405 6.92213 0.619629C7.21412 0.911621 7.36012 1.26921 7.36012 1.69238ZM11.4003 1.69238C11.4003 2.09017 11.2543 2.43083 10.9623 2.71436C10.6788 2.99788 10.3318 3.13965 9.92127 3.13965C9.51502 3.13965 9.16167 2.99577 8.86121 2.70801C8.56922 2.41602 8.42323 2.06266 8.42323 1.64795C8.42323 1.2417 8.56711 0.894694 8.85487 0.606934C9.14263 0.319173 9.48963 0.175293 9.89588 0.175293C10.3148 0.175293 10.6703 0.323405 10.9623 0.619629C11.2543 0.911621 11.4003 1.26921 11.4003 1.69238Z" fill="#707683"/>
</svg>
